# xmcd CD database file
#
# Track frame offsets:
#	150
#	4350
#	20918
#	41227
#	62577
#	81597
#	98872
#	123148
#	143122
#	163469
#	187529
#	211686
#
# Disc length: 3049 seconds
#
# Revision: 8
# Processed by: cddbd v1.5.1PL2 Copyright (c) Steve Scherf et al.
# Submitted via: CDex 1.51
#
DISCID=a40be70c
DTITLE=アンダーグラフ - ゼロへの調和
DYEAR=2005
DGENRE=JPop
TTITLE0=0 (instrumental)
TTITLE1=パーソナルワールド
TTITLE2=ツバサ
TTITLE3=アンブレラ
TTITLE4=白い雨
TTITLE5=ヌケガラカラダ
TTITLE6=hana-bira
TTITLE7=シュノーケル
TTITLE8=忘却の末、海へ還る。
TTITLE9=四季 (Album Version)
TTITLE10=君の声
TTITLE11=ハロー ハロー
EXTD=YEAR: 2005
EXTT0=
EXTT1=
EXTT2=
EXTT3=
EXTT4=
EXTT5=
EXTT6=
EXTT7=
EXTT8=
EXTT9=
EXTT10=
EXTT11=
PLAYORDER=
